<svg width="23" height="23" viewBox="0 0 23 23" fill="none" xmlns="http://www.w3.org/2000/svg">
<path fill-rule="evenodd" clip-rule="evenodd" d="M11.9393 22.5669C17.9503 22.5669 22.8232 17.694 22.8232 11.683C22.8232 5.67196 17.9503 0.799072 11.9393 0.799072C10.1595 0.799072 8.47943 1.22629 6.99611 1.98378L1.93229 1.31515L3.09372 4.58361L0 4.83351L1.69127 8.00855C1.27966 9.15641 1.05542 10.3935 1.05542 11.683C1.05542 17.694 5.9283 22.5669 11.9393 22.5669ZM11.9397 19.0967C16.0342 19.0967 19.3534 15.7775 19.3534 11.683C19.3534 7.58854 16.0342 4.26933 11.9397 4.26933C7.84525 4.26933 4.52603 7.58854 4.52603 11.683C4.52603 15.7775 7.84525 19.0967 11.9397 19.0967Z" fill="#030303"/>
</svg>
