<svg width="24" height="24" viewBox="0 0 24 24" fill="none" xmlns="http://www.w3.org/2000/svg">
<path d="M4 11H10C10.2652 11 10.5196 10.8946 10.7071 10.7071C10.8946 10.5196 11 10.2652 11 10V4C11 3.73478 10.8946 3.48043 10.7071 3.29289C10.5196 3.10536 10.2652 3 10 3H4C3.73478 3 3.48043 3.10536 3.29289 3.29289C3.10536 3.48043 3 3.73478 3 4V10C3 10.2652 3.10536 10.5196 3.29289 10.7071C3.48043 10.8946 3.73478 11 4 11ZM5 5H9V9H5V5Z" fill="black"/>
<path d="M14.0001 11H20.0001C20.2653 11 20.5196 10.8946 20.7072 10.7071C20.8947 10.5196 21.0001 10.2652 21.0001 10V4C21.0001 3.73478 20.8947 3.48043 20.7072 3.29289C20.5196 3.10536 20.2653 3 20.0001 3H14.0001C13.7348 3 13.4805 3.10536 13.293 3.29289C13.1054 3.48043 13.0001 3.73478 13.0001 4V10C13.0001 10.2652 13.1054 10.5196 13.293 10.7071C13.4805 10.8946 13.7348 11 14.0001 11ZM15.0001 5H19.0001V9H15.0001V5Z" fill="black"/>
<path d="M4 21H10C10.2652 21 10.5196 20.8946 10.7071 20.7071C10.8946 20.5196 11 20.2652 11 20V14C11 13.7348 10.8946 13.4804 10.7071 13.2929C10.5196 13.1054 10.2652 13 10 13H4C3.73478 13 3.48043 13.1054 3.29289 13.2929C3.10536 13.4804 3 13.7348 3 14V20C3 20.2652 3.10536 20.5196 3.29289 20.7071C3.48043 20.8946 3.73478 21 4 21ZM5 15H9V19H5V15Z" fill="black"/>
<path d="M14.0001 21H20.0001C20.2653 21 20.5196 20.8946 20.7072 20.7071C20.8947 20.5196 21.0001 20.2652 21.0001 20V14C21.0001 13.7348 20.8947 13.4804 20.7072 13.2929C20.5196 13.1054 20.2653 13 20.0001 13H14.0001C13.7348 13 13.4805 13.1054 13.293 13.2929C13.1054 13.4804 13.0001 13.7348 13.0001 14V20C13.0001 20.2652 13.1054 20.5196 13.293 20.7071C13.4805 20.8946 13.7348 21 14.0001 21ZM15.0001 15H19.0001V19H15.0001V15Z" fill="black"/>
</svg>
