<svg width="149" height="78" viewBox="0 0 149 78" fill="none" xmlns="http://www.w3.org/2000/svg">
<path d="M6.83963 75.0757C6.83963 76.4049 6.04084 77.2556 4.79273 77.2556H2.0469C0.798788 77.2556 0 76.4049 0 75.0757V3.03067C0 1.70143 0.798788 0.850716 2.0469 0.850716H9.48561C10.7337 0.850716 11.5325 1.70143 11.5325 3.03067V5.95501C11.5325 7.28425 10.7337 8.13497 9.48561 8.13497H6.83963V33.816H8.88652C10.0847 33.816 10.8835 34.6667 10.8835 35.9427V38.3354C10.8835 39.6646 10.0847 40.5153 8.88652 40.5153H6.83963V75.0757Z" fill="#000000"/>
<path d="M22.388 75.0757C22.388 76.4049 21.5893 77.2556 20.3411 77.2556H17.5953C16.3472 77.2556 15.5484 76.4049 15.5484 75.0757V3.08384C15.5484 1.7546 16.3472 0.903886 17.5953 0.903886H20.3411C21.5893 0.903886 22.388 1.7546 22.388 3.08384V75.0757Z" fill="#000000"/>
<path d="M34.1422 78C29.7988 78 26.7035 74.1186 26.7035 70.0777V7.92229C26.7035 3.24335 30.348 0 34.1422 0C38.2859 0 41.6309 3.5092 41.6309 7.92229V35.9427C41.6309 37.272 40.8321 38.1227 39.584 38.1227H36.8381C35.59 38.1227 34.7912 37.272 34.7912 35.9427V7.92229C34.7912 7.5501 34.4917 7.23108 34.1422 7.23108C33.7927 7.23108 33.5431 7.5501 33.5431 7.92229V70.0777C33.5431 70.4499 33.7927 70.7157 34.1422 70.7157C34.4917 70.7157 34.7912 70.4499 34.7912 70.0777V42.0041C34.7912 40.6748 35.59 39.8241 36.8381 39.8241H39.584C40.8321 39.8241 41.6309 40.6748 41.6309 42.0041V70.0777C41.6309 74.7035 37.9864 78 34.1422 78Z" fill="#000000"/>
<path d="M60.9236 75.0757C60.9236 76.4049 60.1248 77.2556 58.8767 77.2556H56.1309C54.8828 77.2556 54.084 76.4049 54.084 75.0757V40.5685H52.7859V75.0757C52.7859 76.4049 51.9871 77.2556 50.739 77.2556H47.9932C46.7451 77.2556 45.9463 76.4049 45.9463 75.0757V3.08384C45.9463 1.7546 46.7451 0.903886 47.9932 0.903886H50.739C51.9871 0.903886 52.7859 1.7546 52.7859 3.08384V33.8691H54.084V3.08384C54.084 1.7546 54.8828 0.903886 56.1309 0.903886H58.8767C60.1248 0.903886 60.9236 1.7546 60.9236 3.08384V75.0757Z" fill="#000000"/>
<path d="M75.5734 0.691207C78.3192 2.07362 80.1165 4.78528 80.1165 8.02863V75.0225C80.1165 76.3517 79.3177 77.2025 78.0696 77.2025H75.3238C74.0756 77.2025 73.2769 76.3517 73.2769 75.0225V45.6196H72.0288V75.0225C72.0288 76.3517 71.23 77.2025 69.9819 77.2025H67.236C65.9879 77.2025 65.1891 76.3517 65.1891 75.0225V8.02863C65.1891 4.83845 66.9864 1.96728 69.7322 0.691207C70.6808 0.319018 71.6294 0.106339 72.6278 0.106339C73.6263 0.106339 74.6248 0.319018 75.5734 0.691207ZM73.2769 38.9202V8.02863C73.2769 7.65644 72.9773 7.33742 72.6278 7.33742C72.2784 7.33742 72.0288 7.65644 72.0288 8.02863V38.9202H73.2769Z" fill="#000000"/>
<path d="M101.828 75.0757C101.828 76.4049 101.029 77.2556 99.7807 77.2556H97.0348C95.7867 77.2556 94.9879 76.4049 94.9879 75.0757V3.08384C94.9879 1.7546 95.7867 0.903886 97.0348 0.903886H99.7807C101.029 0.903886 101.828 1.7546 101.828 3.08384V75.0757Z" fill="#000000"/>
<path d="M112.983 40.409V75.0225C112.983 76.3517 112.184 77.2025 110.936 77.2025H108.19C106.942 77.2025 106.143 76.3517 106.143 75.0225V8.77301C106.143 4.46626 109.438 0.797546 113.582 0.797546H131.155C132.403 0.797546 133.202 1.64826 133.202 2.97751V5.90184C133.202 7.23108 132.403 8.0818 131.155 8.0818H113.582C113.232 8.0818 112.983 8.40082 112.983 8.77301V33.7096H115.03C116.228 33.7096 117.026 34.5603 117.026 35.8364V38.229C117.026 39.5583 116.228 40.409 115.03 40.409H112.983ZM133.102 40.1432C133.102 41.4724 132.303 42.3231 131.055 42.3231H128.309C127.061 42.3231 126.262 41.4724 126.262 40.1432V16.8548C126.262 16.4826 126.013 16.1636 125.663 16.1636C125.314 16.1636 125.014 16.4826 125.014 16.8548V69.865C125.014 70.2372 125.314 70.5031 125.663 70.5031C126.013 70.5031 126.262 70.2372 126.262 69.865V46.6299C126.262 45.3006 127.061 44.4499 128.309 44.4499H131.055C132.303 44.4499 133.102 45.3006 133.102 46.6299V69.865C133.102 71.8855 132.303 74.0654 130.905 75.4479C129.607 76.9366 127.561 77.7873 125.663 77.7873C121.57 77.7873 118.175 74.2781 118.175 69.865V16.8548C118.175 12.4949 121.52 8.93252 125.663 8.93252C127.561 8.93252 129.607 9.78323 130.905 11.272C132.303 12.6544 133.102 14.8344 133.102 16.8548V40.1432Z" fill="#000000"/>
<path d="M144.906 0.850716H146.953C148.201 0.850716 149 1.70143 149 3.03067V5.90184C149 7.23108 148.201 8.0818 146.953 8.0818H144.906C144.557 8.0818 144.307 8.40082 144.307 8.77301V33.7096H146.354C147.552 33.7096 148.351 34.5603 148.351 35.8364V38.229C148.351 39.5583 147.552 40.409 146.354 40.409H144.307V69.9182H146.953C148.201 69.9182 149 70.7689 149 72.0982V75.0225C149 76.3517 148.201 77.2025 146.953 77.2025H139.514C138.266 77.2025 137.467 76.3517 137.467 75.0225V8.77301C137.467 5.58282 139.265 2.71166 142.011 1.43558C142.959 1.06339 143.908 0.850716 144.906 0.850716Z" fill="#000000"/>
</svg>
