<svg width="40" height="55" viewBox="0 0 40 55" fill="none" xmlns="http://www.w3.org/2000/svg">
<path d="M0.305344 18.3511C0.305344 16.142 2.09621 14.3511 4.30534 14.3511H8.21374C10.4229 14.3511 12.2137 16.142 12.2137 18.3511V22.2595C12.2137 24.4687 10.4229 26.2595 8.21374 26.2595H4.30535C2.09621 26.2595 0.305344 24.4687 0.305344 22.2595V18.3511Z" fill="#32A041"/>
<path d="M14.1985 18.3511C14.1985 16.142 15.9893 14.3511 18.1985 14.3511H22.1069C24.316 14.3511 26.1069 16.142 26.1069 18.3511V22.2595C26.1069 24.4687 24.316 26.2595 22.1069 26.2595H18.1985C15.9893 26.2595 14.1985 24.4687 14.1985 22.2595V18.3511Z" fill="#32A041"/>
<path d="M14.1985 4.30535C14.1985 2.09621 15.9893 0.305344 18.1985 0.305344H22.1069C24.316 0.305344 26.1069 2.09621 26.1069 4.30534V8.21374C26.1069 10.4229 24.316 12.2137 22.1069 12.2137H18.1985C15.9893 12.2137 14.1985 10.4229 14.1985 8.21374V4.30535Z" fill="#32A041"/>
<path d="M0 6.25954C0 2.80249 2.80249 0 6.25954 0C9.71659 0 12.5191 2.80249 12.5191 6.25954C12.5191 9.71659 9.71659 12.5191 6.25954 12.5191C2.80249 12.5191 0 9.71659 0 6.25954Z" fill="#C8191E"/>
<path d="M28.0916 4.30535C28.0916 2.09621 29.8825 0.305344 32.0916 0.305344H36C38.2091 0.305344 40 2.09621 40 4.30534V8.21374C40 10.4229 38.2091 12.2137 36 12.2137H32.0916C29.8825 12.2137 28.0916 10.4229 28.0916 8.21374V4.30535Z" fill="#32A041"/>
<path d="M0.305344 32.3969C0.305344 30.1878 2.09621 28.3969 4.30534 28.3969H8.21374C10.4229 28.3969 12.2137 30.1878 12.2137 32.3969V36.3053C12.2137 38.5145 10.4229 40.3053 8.21374 40.3053H4.30535C2.09621 40.3053 0.305344 38.5145 0.305344 36.3053V32.3969Z" fill="#32A041"/>
<path d="M14.1985 32.3969C14.1985 30.1878 15.9893 28.3969 18.1985 28.3969H22.1069C24.316 28.3969 26.1069 30.1878 26.1069 32.3969V36.3053C26.1069 38.5145 24.316 40.3053 22.1069 40.3053H18.1985C15.9893 40.3053 14.1985 38.5145 14.1985 36.3053V32.3969Z" fill="#32A041"/>
<path d="M28.0916 32.3969C28.0916 30.1878 29.8825 28.3969 32.0916 28.3969H36C38.2091 28.3969 40 30.1878 40 32.3969V36.3053C40 38.5145 38.2091 40.3053 36 40.3053H32.0916C29.8825 40.3053 28.0916 38.5145 28.0916 36.3053V32.3969Z" fill="#32A041"/>
<path d="M0.305344 46.4428C0.305344 44.2336 2.09621 42.4427 4.30534 42.4427H8.21374C10.4229 42.4427 12.2137 44.2336 12.2137 46.4427V50.3511C12.2137 52.5603 10.4229 54.3511 8.21374 54.3511H4.30535C2.09621 54.3511 0.305344 52.5603 0.305344 50.3511V46.4428Z" fill="#32A041"/>
<path d="M14.1985 46.4428C14.1985 44.2336 15.9893 42.4427 18.1985 42.4427H22.1069C24.316 42.4427 26.1069 44.2336 26.1069 46.4427V50.3511C26.1069 52.5603 24.316 54.3511 22.1069 54.3511H18.1985C15.9893 54.3511 14.1985 52.5603 14.1985 50.3511V46.4428Z" fill="#32A041"/>
</svg>
