<svg width="16" height="16" viewBox="0 0 16 16" fill="none" xmlns="http://www.w3.org/2000/svg">
<path d="M4.25 1C3.2835 1 2.5 1.7835 2.5 2.75V6H4V2.75C4 2.61193 4.11193 2.5 4.25 2.5H11.75C11.8881 2.5 12 2.61193 12 2.75V13.25C12 13.3881 11.8881 13.5 11.75 13.5H4.25C4.11193 13.5 4 13.3881 4 13.25V10H2.5V13.25C2.5 14.2165 3.2835 15 4.25 15H11.75C12.7165 15 13.5 14.2165 13.5 13.25V2.75C13.5 1.7835 12.7165 1 11.75 1H4.25ZM7.21967 4.96967C6.92678 5.26256 6.92678 5.73744 7.21967 6.03033L8.43936 7.25002L1.75 7.25003C1.33579 7.25003 1 7.58582 1 8.00003C1 8.41424 1.33579 8.75003 1.75 8.75003L8.43932 8.75002L7.21967 9.96967C6.92678 10.2626 6.92678 10.7374 7.21967 11.0303C7.51256 11.3232 7.98744 11.3232 8.28033 11.0303L10.7803 8.53033C11.0732 8.23744 11.0732 7.76256 10.7803 7.46967L8.28033 4.96967C7.98744 4.67678 7.51256 4.67678 7.21967 4.96967Z" fill="#000000"/>
</svg>
