<svg width="19" height="24" viewBox="0 0 19 24" fill="none" xmlns="http://www.w3.org/2000/svg">
<path d="M11.9328 0.254395H7.87144C7.59106 0.254395 7.36377 0.481999 7.36377 0.762763V4.82971C7.36377 5.11048 7.59106 5.33808 7.87144 5.33808H11.9328C12.2132 5.33808 12.4405 5.11048 12.4405 4.82971V0.762763C12.4405 0.481999 12.2132 0.254395 11.9328 0.254395Z" fill="black"/>
<path d="M18.0256 0.254395H13.9642C13.6838 0.254395 13.4565 0.481999 13.4565 0.762763V4.82971C13.4565 5.11048 13.6838 5.33808 13.9642 5.33808H18.0256C18.3059 5.33808 18.5332 5.11048 18.5332 4.82971V0.762763C18.5332 0.481999 18.3059 0.254395 18.0256 0.254395Z" fill="black"/>
<path d="M5.84197 6.35425H1.78062C1.50024 6.35425 1.27295 6.58185 1.27295 6.86262V10.9296C1.27295 11.2103 1.50024 11.4379 1.78062 11.4379H5.84197C6.12235 11.4379 6.34964 11.2103 6.34964 10.9296V6.86262C6.34964 6.58185 6.12235 6.35425 5.84197 6.35425Z" fill="black"/>
<path d="M11.9328 6.35425H7.87144C7.59106 6.35425 7.36377 6.58185 7.36377 6.86262V10.9296C7.36377 11.2103 7.59106 11.4379 7.87144 11.4379H11.9328C12.2132 11.4379 12.4405 11.2103 12.4405 10.9296V6.86262C12.4405 6.58185 12.2132 6.35425 11.9328 6.35425Z" fill="black"/>
<path d="M5.84197 12.4551H1.78062C1.50024 12.4551 1.27295 12.6827 1.27295 12.9634V17.0304C1.27295 17.3112 1.50024 17.5388 1.78062 17.5388H5.84197C6.12235 17.5388 6.34964 17.3112 6.34964 17.0304V12.9634C6.34964 12.6827 6.12235 12.4551 5.84197 12.4551Z" fill="black"/>
<path d="M11.9328 12.4551H7.87144C7.59106 12.4551 7.36377 12.6827 7.36377 12.9634V17.0304C7.36377 17.3112 7.59106 17.5388 7.87144 17.5388H11.9328C12.2132 17.5388 12.4405 17.3112 12.4405 17.0304V12.9634C12.4405 12.6827 12.2132 12.4551 11.9328 12.4551Z" fill="black"/>
<path d="M18.0256 12.4551H13.9642C13.6838 12.4551 13.4565 12.6827 13.4565 12.9634V17.0304C13.4565 17.3112 13.6838 17.5388 13.9642 17.5388H18.0256C18.3059 17.5388 18.5332 17.3112 18.5332 17.0304V12.9634C18.5332 12.6827 18.3059 12.4551 18.0256 12.4551Z" fill="black"/>
<path d="M5.84197 18.5554H1.78062C1.50024 18.5554 1.27295 18.783 1.27295 19.0638V23.1307C1.27295 23.4115 1.50024 23.6391 1.78062 23.6391H5.84197C6.12235 23.6391 6.34964 23.4115 6.34964 23.1307V19.0638C6.34964 18.783 6.12235 18.5554 5.84197 18.5554Z" fill="black"/>
<path d="M11.9328 18.5554H7.87144C7.59106 18.5554 7.36377 18.783 7.36377 19.0638V23.1307C7.36377 23.4115 7.59106 23.6391 7.87144 23.6391H11.9328C12.2132 23.6391 12.4405 23.4115 12.4405 23.1307V19.0638C12.4405 18.783 12.2132 18.5554 11.9328 18.5554Z" fill="black"/>
<path d="M3.73953 5.67339C5.30404 5.67339 6.57233 4.40336 6.57233 2.8367C6.57233 1.27003 5.30404 0 3.73953 0C2.17502 0 0.906738 1.27003 0.906738 2.8367C0.906738 4.40336 2.17502 5.67339 3.73953 5.67339Z" fill="#CD191E"/>
</svg>
